HIERARCHY
ROOT root
{
	OFFSET	0	13.1	24.9
	CHANNELS 6  Xposition Yposition Zposition Xrotation Yrotation Zrotation
	JOINT spine_1
	{
		OFFSET	0	9.99999	0
		CHANNELS 3  Xrotation Yrotation Zrotation
		JOINT spine_2
		{
			OFFSET	0	112	-10
			CHANNELS 3  Xrotation Yrotation Zrotation
			JOINT spine_3
			{
				OFFSET	0	206.5	19.3
				CHANNELS 3  Xrotation Yrotation Zrotation
				JOINT spine_4
				{
					OFFSET	0	110.4	14.6
					CHANNELS 3  Xrotation Yrotation Zrotation
					JOINT neck_1
					{
						OFFSET	0	71.8	-50.3
						CHANNELS 3  Xrotation Yrotation Zrotation
						JOINT neck_2
						{
							OFFSET	0	86.2	-25.8
							CHANNELS 3  Xrotation Yrotation Zrotation
							JOINT head_ee
							{
								OFFSET	0	179.8	-8.7
								CHANNELS 3  Xrotation Yrotation Zrotation
								End Site
								{
									OFFSET	1	0	0
								}
							}
						}
					}
					JOINT left_clavicle
					{
						OFFSET	-43.2	22.4	-70.8
						CHANNELS 3  Xrotation Yrotation Zrotation
						JOINT left_shoulder
						{
							OFFSET	-93.9	-5.79999	48.7
							CHANNELS 3  Xrotation Yrotation Zrotation
							JOINT left_elbow
							{
								OFFSET	-291.4	-30.8	15.2
								CHANNELS 3  Xrotation Yrotation Zrotation
								JOINT left_lowarm_twist
								{
									OFFSET	-110.7	-3.89999	13.6
									CHANNELS 3  Xrotation Yrotation Zrotation
									JOINT left_hand
									{
										OFFSET	-110.7	-3.89999	13.6
										CHANNELS 3  Xrotation Yrotation Zrotation
										JOINT left_ee
										{
											OFFSET	-80.8	-5.10001	12.1
											CHANNELS 3  Xrotation Yrotation Zrotation
											End Site
											{
												OFFSET	1	0	0
											}
										}
									}
								}
							}
						}
					}
					JOINT right_clavicle
					{
						OFFSET	43.2	22.4	-70.8
						CHANNELS 3  Xrotation Yrotation Zrotation
						JOINT right_shoulder
						{
							OFFSET	93.9	-5.79999	48.7
							CHANNELS 3  Xrotation Yrotation Zrotation
							JOINT right_elbow
							{
								OFFSET	291.4	-30.8	15.2
								CHANNELS 3  Xrotation Yrotation Zrotation
								JOINT right_lowarm_twist
								{
									OFFSET	110.7	-3.89999	13.6
									CHANNELS 3  Xrotation Yrotation Zrotation
									JOINT right_hand
									{
										OFFSET	110.7	-3.89999	13.6
										CHANNELS 3  Xrotation Yrotation Zrotation
										JOINT right_ee
										{
											OFFSET	80.8	-5.10001	12.1
											CHANNELS 3  Xrotation Yrotation Zrotation
											End Site
											{
												OFFSET	1	0	0
											}
										}
									}
								}
							}
						}
					}
				}
			}
		}
	}
	JOINT left_hip
	{
		OFFSET	-82.8	-127.5	0.300001
		CHANNELS 3  Xrotation Yrotation Zrotation
		JOINT left_knee
		{
			OFFSET	-28.2	-396.7	2.2
			CHANNELS 3  Xrotation Yrotation Zrotation
			JOINT left_ankle
			{
				OFFSET	-11.7	-411.3	35.4
				CHANNELS 3  Xrotation Yrotation Zrotation
				JOINT left_toes
				{
					OFFSET	0	-60	-88.6
					CHANNELS 3  Xrotation Yrotation Zrotation
					JOINT left_foot_ee
					{
						OFFSET	-22.5	-16.5	-42.2
						CHANNELS 3  Xrotation Yrotation Zrotation
						End Site
						{
							OFFSET	1	0	0
						}
					}
				}
			}
		}
	}
	JOINT right_hip
	{
		OFFSET	82.8	-127.5	0.300001
		CHANNELS 3  Xrotation Yrotation Zrotation
		JOINT right_knee
		{
			OFFSET	28.2	-396.7	2.2
			CHANNELS 3  Xrotation Yrotation Zrotation
			JOINT right_ankle
			{
				OFFSET	11.7	-411.3	35.4
				CHANNELS 3  Xrotation Yrotation Zrotation
				JOINT right_toes
				{
					OFFSET	0	-60	-88.6
					CHANNELS 3  Xrotation Yrotation Zrotation
					JOINT right_foot_ee
					{
						OFFSET	22.5	-16.5	-42.2
						CHANNELS 3  Xrotation Yrotation Zrotation
						End Site
						{
							OFFSET	1	0	0
						}
					}
				}
			}
		}
	}
}
MOTION
Frames: 5
Frame Time: 0.02
3483.69495379 757.091 -1505.28998454 -6.86821206026 68.902448371 5.80657728553 1.90266 0.638005 0.365847 1.90252 0.613432 0.405705 1.90694 0.531687 0.50814 1.90709 0.605265 0.417792 -14.6842 8.95624 -2.3423 -14.9637 18.5126 0.766742 -0.0 0.0 -0.0 -3.44581 22.2008 -2.27608 -18.2566 -23.6589 66.9397 1.74257 -40.7977 0.648059 -13.0202 -0.636194 1.53483 -0.0738538 9.50385 3.46582 -0.0 0.0 -0.0 7.04147 28.3524 -12.0663 -14.2748 28.3737 -62.3413 0.619133 17.0509 -0.0928123 -3.44031 0.133848 -0.418813 1.35932 -26.5601 -18.3162 0.0 0.0 0.0 27.4166 13.6514 -9.34046 -22.2017 0.262989 3.3756 21.9188 25.2213 -3.12255 1.43891 -0.0 -0.0 -0.0 0.0 -0.0 5.92295 12.6762 -1.98344 -22.825 -0.251401 -3.47054 19.5691 15.056 2.89098 12.6007 -0.0 -0.0 0.0 0.0 0.0 
3484.75203221 757.091 -1508.26508933 -6.33156142346 67.0252358583 5.22771157378 1.90266 0.638005 0.365847 1.90252 0.613432 0.405705 1.90694 0.531687 0.50814 1.90709 0.605265 0.417792 -14.6842 8.95624 -2.3423 -14.9637 18.5126 0.766742 -0.0 0.0 -0.0 -3.44581 22.2008 -2.27608 -18.2566 -23.6589 66.9397 1.74257 -40.7977 0.648059 -13.0202 -0.636194 1.53483 -0.0738538 9.50385 3.46582 -0.0 0.0 -0.0 7.04147 28.3524 -12.0663 -14.2748 28.3737 -62.3413 0.619133 17.0509 -0.0928123 -3.44031 0.133848 -0.418813 1.35932 -26.5601 -18.3162 0.0 0.0 0.0 27.4166 13.6514 -9.34046 -22.2017 0.262989 3.3756 21.9188 25.2213 -3.12255 1.43891 -0.0 -0.0 -0.0 0.0 -0.0 5.92295 12.6762 -1.98344 -22.825 -0.251401 -3.47054 19.5691 15.056 2.89098 12.6007 -0.0 -0.0 0.0 0.0 0.0 
3484.98255928 757.091 -1508.87514404 -6.23176927298 66.6372679024 5.11916579087 1.90266 0.638005 0.365847 1.90252 0.613432 0.405705 1.90694 0.531687 0.50814 1.90709 0.605265 0.417792 -14.6842 8.95624 -2.3423 -14.9637 18.5126 0.766742 -0.0 0.0 -0.0 -3.44581 22.2008 -2.27608 -18.2566 -23.6589 66.9397 1.74257 -40.7977 0.648059 -13.0202 -0.636194 1.53483 -0.0738538 9.50385 3.46582 -0.0 0.0 -0.0 7.04147 28.3524 -12.0663 -14.2748 28.3737 -62.3413 0.619133 17.0509 -0.0928123 -3.44031 0.133848 -0.418813 1.35932 -26.5601 -18.3162 0.0 0.0 0.0 27.4166 13.6514 -9.34046 -22.2017 0.262989 3.3756 21.9188 25.2213 -3.12255 1.43891 -0.0 -0.0 -0.0 0.0 -0.0 5.92295 12.6762 -1.98344 -22.825 -0.251401 -3.47054 19.5691 15.056 2.89098 12.6007 -0.0 -0.0 0.0 0.0 0.0 
3469.45640522 749.297 -1502.49261537 -5.6603581785 68.5865474371 4.65798295236 1.72492 0.660332 0.521634 1.72485 0.625801 0.562595 1.7311 0.51398 0.666307 1.731 0.612758 0.576774 -14.8069 8.97801 -1.53173 -15.0856 18.073 1.55864 -0.0 0.0 -0.0 -3.27831 22.0409 -2.07186 -19.6403 -23.5206 67.2313 1.45889 -35.8531 0.471978 -12.0848 -0.578981 1.42969 -0.127332 11.1319 3.7877 -0.0 0.0 -0.0 7.00152 27.8386 -12.0356 -11.8694 29.8374 -61.354 0.666334 18.2672 -0.107132 -4.13683 0.163999 -0.502598 1.17778 -26.2624 -17.1628 0.0 0.0 0.0 29.9712 12.7325 -9.52226 -23.2932 0.242016 3.54178 17.3957 28.7914 -2.58101 0.591247 -0.0 -0.0 -0.0 0.0 -0.0 3.48122 12.3801 -1.29191 -19.4325 -0.301959 -2.95251 18.9621 14.7016 2.80305 12.9535 -0.0 -0.0 0.0 0.0 0.0 
3468.91732497 749.297 -1500.3679524 -5.96824668534 69.7373667022 4.98740331413 1.72492 0.660332 0.521634 1.72485 0.625801 0.562595 1.7311 0.51398 0.666307 1.731 0.612758 0.576774 -14.8069 8.97801 -1.53173 -15.0856 18.073 1.55864 -0.0 0.0 -0.0 -3.27831 22.0409 -2.07186 -19.6403 -23.5206 67.2313 1.45889 -35.8531 0.471978 -12.0848 -0.578981 1.42969 -0.127332 11.1319 3.7877 -0.0 0.0 -0.0 7.00152 27.8386 -12.0356 -11.8694 29.8374 -61.354 0.666334 18.2672 -0.107132 -4.13683 0.163999 -0.502598 1.17778 -26.2624 -17.1628 0.0 0.0 0.0 29.9712 12.7325 -9.52226 -23.2932 0.242016 3.54178 17.3957 28.7914 -2.58101 0.591247 -0.0 -0.0 -0.0 0.0 -0.0 3.48122 12.3801 -1.29191 -19.4325 -0.301959 -2.95251 18.9621 14.7016 2.80305 12.9535 -0.0 -0.0 0.0 0.0 0.0 
